<svg id="Layer_1" data-name="Layer 1" xmlns="http://www.w3.org/2000/svg" xmlns:xlink="http://www.w3.org/1999/xlink" viewBox="0 0 136.26 166.56"><defs><style>.cls-1,.cls-15,.cls-4,.cls-5,.cls-6{fill:none;}.cls-2{fill:#fff;}.cls-15,.cls-2,.cls-5,.cls-6{stroke:#000;}.cls-15,.cls-2,.cls-4,.cls-5,.cls-6{stroke-miterlimit:10;}.cls-15,.cls-2,.cls-5{stroke-width:2px;}.cls-3{clip-path:url(#clip-path);}.cls-4{stroke:#a6a6a6;stroke-width:1.7px;}.cls-4,.cls-5,.cls-6{opacity:0.7;}.cls-6{stroke-width:0.8px;}.cls-7{fill:#01d4ff;}.cls-8{fill:#ff008a;}.cls-9{fill:#31ff00;}.cls-10{fill:#00ffa1;}.cls-11{fill:#4500ff;}.cls-12{fill:#fed500;}.cls-13{fill:#fb6f01;}.cls-14{fill:#009eff;}</style><clipPath id="clip-path" transform="translate(-3.68 -7.05)"><polyline class="cls-1" points="137.87 3.17 0.93 3.17 0.93 177.38 137.87 177.38"/></clipPath></defs><title>CSAN_Logo</title><path class="cls-2" d="M40.79,14.32C28.73,21,21.55,33.83,17,46.59c-2.15,6-3.27,12.29-5.29,18.36a154.88,154.88,0,0,0-5.31,18.5c-5.06,25.22,1,49.39,17.56,69.15,7,8.32,20.4,19.24,31.74,20a16.21,16.21,0,0,0,8.87-2.1c2.37-1.37,3-3,3.57-5.92,1-5.37,0-11-.33-16.41-1.34-25.92-1.35-51.73-.82-77.67.29-13.81.49-27.6.47-41.41,0-4,1.87-14.68-1.06-18.15C62.9,6.75,54.51,7.86,50.22,9.68,47,11,43.91,12.78,40.79,14.32Z" transform="translate(-3.68 -7.05)"/><g class="cls-3"><path class="cls-4" d="M79.48,158.88" transform="translate(-3.68 -7.05)"/></g><g class="cls-3"><path class="cls-4" d="M79.48,158.88" transform="translate(-3.68 -7.05)"/></g><g class="cls-3"><path class="cls-4" d="M65.76,115.05a25,25,0,0,1-2.24,1.29" transform="translate(-3.68 -7.05)"/></g><g class="cls-3"><path class="cls-4" d="M63.52,116.34a8.59,8.59,0,0,0-2,1.47" transform="translate(-3.68 -7.05)"/></g><g class="cls-3"><line class="cls-4" x1="57.88" y1="110.76" x2="57" y2="111.68"/></g><g class="cls-3"><line class="cls-4" x1="57" y1="111.68" x2="56.84" y2="115.08"/></g><g class="cls-3"><path class="cls-4" d="M60.52,122.13c-.09,1.87-.22,3.71-.31,4.1" transform="translate(-3.68 -7.05)"/></g><g class="cls-3"><line class="cls-4" x1="56.53" y1="119.18" x2="56.38" y2="119.88"/></g><g class="cls-3"><line class="cls-4" x1="56.38" y1="119.88" x2="54.02" y2="119.83"/></g><g class="cls-3"><path class="cls-4" d="M57.7,126.88a10.09,10.09,0,0,0-6.09,1.33" transform="translate(-3.68 -7.05)"/></g><g class="cls-3"><path class="cls-4" d="M51.61,128.21a10,10,0,0,0-4,3.92" transform="translate(-3.68 -7.05)"/></g><g class="cls-3"><path class="cls-4" d="M47.61,132.13c-.53,1-.56,1.23-.55,3.63" transform="translate(-3.68 -7.05)"/></g><g class="cls-3"><path class="cls-4" d="M47.06,135.76a16.67,16.67,0,0,0,1.31,7" transform="translate(-3.68 -7.05)"/></g><g class="cls-3"><path class="cls-4" d="M48.37,142.71c1.65,4.45,4.25,7.45,6.46,7.45" transform="translate(-3.68 -7.05)"/></g><g class="cls-3"><path class="cls-4" d="M54.83,150.16c.85,0,1-.06,2.39-1.6" transform="translate(-3.68 -7.05)"/></g><g class="cls-3"><path class="cls-4" d="M57.22,148.56c1.6-1.72,2.24-2,3.58-1.74" transform="translate(-3.68 -7.05)"/></g><g class="cls-3"><path class="cls-4" d="M60.8,146.82c1.79.38,1.93,1.09.73,3.82" transform="translate(-3.68 -7.05)"/></g><g class="cls-3"><path class="cls-4" d="M61.53,150.64a7,7,0,0,0-.84,3.18" transform="translate(-3.68 -7.05)"/></g><g class="cls-3"><path class="cls-4" d="M60.69,153.82a3.22,3.22,0,0,0,.61,2.34" transform="translate(-3.68 -7.05)"/></g><g class="cls-3"><path class="cls-4" d="M61.3,156.16a4.19,4.19,0,0,1,.65,1.55" transform="translate(-3.68 -7.05)"/></g><g class="cls-3"><path class="cls-4" d="M62,157.71a7,7,0,0,1-.65,1.91" transform="translate(-3.68 -7.05)"/></g><g class="cls-3"><line class="cls-4" x1="57.63" y1="152.57" x2="56.98" y2="153.96"/></g><g class="cls-3"><line class="cls-4" x1="56.98" y1="153.96" x2="57.04" y2="157.46"/></g><g class="cls-3"><path class="cls-4" d="M60.72,164.51c.06,4.07,0,4.16-1.53,2.51" transform="translate(-3.68 -7.05)"/></g><g class="cls-3"><path class="cls-4" d="M59.19,167a14.49,14.49,0,0,0-3.67-2.87" transform="translate(-3.68 -7.05)"/></g><g class="cls-3"><path class="cls-4" d="M55.52,164.15a8.49,8.49,0,0,0-1.75,1.42" transform="translate(-3.68 -7.05)"/></g><g class="cls-3"><path class="cls-4" d="M53.77,165.57A8.16,8.16,0,0,1,52,167" transform="translate(-3.68 -7.05)"/></g><g class="cls-3"><path class="cls-4" d="M52,167c-.36,0-.71-.45-1.72-2.2" transform="translate(-3.68 -7.05)"/></g><g class="cls-3"><path class="cls-4" d="M50.29,164.79c-.94-1.66-1.55-2.15-2.92-2.36" transform="translate(-3.68 -7.05)"/></g><g class="cls-3"><path class="cls-4" d="M47.37,162.43c-2-.3-2.43-1-1.49-2.11" transform="translate(-3.68 -7.05)"/></g><g class="cls-3"><path class="cls-4" d="M45.88,160.32c.78-.95,1.58-.86,3.43.38" transform="translate(-3.68 -7.05)"/></g><g class="cls-3"><path class="cls-4" d="M49.31,160.7a12.62,12.62,0,0,0,5.62,2.06" transform="translate(-3.68 -7.05)"/></g><g class="cls-3"><path class="cls-4" d="M54.93,162.76c1.57,0,2.61-1.91,2-3.56" transform="translate(-3.68 -7.05)"/></g><g class="cls-3"><path class="cls-4" d="M56.93,159.2c-.48-1.29-1.27-2.13-4.1-4.33" transform="translate(-3.68 -7.05)"/></g><g class="cls-3"><path class="cls-4" d="M52.83,154.87c-1.44-1.13-4-3.34-5.78-4.93" transform="translate(-3.68 -7.05)"/></g><g class="cls-3"><path class="cls-4" d="M47.05,149.94c-3.62-3.29-4.12-3.61-5-3.23" transform="translate(-3.68 -7.05)"/></g><g class="cls-3"><path class="cls-4" d="M42,146.71c-1.26.54-2.18,2.39-3.74,7.51" transform="translate(-3.68 -7.05)"/></g><g class="cls-3"><path class="cls-4" d="M38.28,154.22a32.39,32.39,0,0,1-1.2,3.53" transform="translate(-3.68 -7.05)"/></g><g class="cls-3"><path class="cls-4" d="M37.08,157.75c-.11.12-.35-.2-.63-.81" transform="translate(-3.68 -7.05)"/></g><g class="cls-3"><path class="cls-4" d="M36.45,156.94c-.4-.91-.45-1.37-.51-5.26" transform="translate(-3.68 -7.05)"/></g><g class="cls-3"><path class="cls-4" d="M35.94,151.68c-.09-4.64-.11-4.74-1.36-6.31" transform="translate(-3.68 -7.05)"/></g><g class="cls-3"><line class="cls-4" x1="30.91" y1="138.32" x2="30.24" y2="137.48"/></g><g class="cls-3"><line class="cls-4" x1="30.24" y1="137.48" x2="31.02" y2="135.99"/></g><g class="cls-3"><path class="cls-4" d="M34.7,143A12.36,12.36,0,0,0,36.38,137" transform="translate(-3.68 -7.05)"/></g><g class="cls-3"><path class="cls-4" d="M36.38,137c0-2.51-.45-3.67-2.34-6" transform="translate(-3.68 -7.05)"/></g><g class="cls-3"><line class="cls-4" x1="30.36" y1="123.95" x2="29.58" y2="123"/></g><g class="cls-3"><line class="cls-4" x1="29.58" y1="123" x2="29.57" y2="120.94"/></g><g class="cls-3"><path class="cls-4" d="M33.25,128a5.83,5.83,0,0,0-.66-3.43" transform="translate(-3.68 -7.05)"/></g><g class="cls-3"><path class="cls-4" d="M32.59,124.56A7,7,0,0,0,29,121.09" transform="translate(-3.68 -7.05)"/></g><g class="cls-3"><line class="cls-4" x1="25.32" y1="114.04" x2="24.03" y2="113.41"/></g><g class="cls-3"><line class="cls-4" x1="24.03" y1="113.41" x2="17.39" y2="113.3"/></g><g class="cls-3"><path class="cls-4" d="M21.07,120.35c-3.65,0-6.72-.18-6.81-.27" transform="translate(-3.68 -7.05)"/></g><g class="cls-3"><path class="cls-4" d="M14.26,120.08c-.23-.25,1.16-1.43,2.4-2" transform="translate(-3.68 -7.05)"/></g><g class="cls-3"><path class="cls-4" d="M16.66,118.05C18.55,117.13,21,116.63,27,116" transform="translate(-3.68 -7.05)"/></g><g class="cls-3"><path class="cls-4" d="M27,116c6.33-.69,6.76-.89,10.78-5.06" transform="translate(-3.68 -7.05)"/></g><g class="cls-3"><path class="cls-4" d="M37.8,110.93c3-3.11,4.52-5.1,4.83-6.27" transform="translate(-3.68 -7.05)"/></g><g class="cls-3"><path class="cls-4" d="M42.63,104.66c.44-1.67-.06-4.36-1.37-7.44" transform="translate(-3.68 -7.05)"/></g><g class="cls-3"><path class="cls-4" d="M41.26,97.22a22.84,22.84,0,0,1-2.15-9.82" transform="translate(-3.68 -7.05)"/></g><g class="cls-3"><path class="cls-4" d="M39.11,87.4a7,7,0,0,0-.49-3.29" transform="translate(-3.68 -7.05)"/></g><g class="cls-3"><path class="cls-4" d="M38.62,84.11c-.3-.81-.85-2.8-1.23-4.41" transform="translate(-3.68 -7.05)"/></g><g class="cls-3"><path class="cls-4" d="M37.39,79.7c-.75-3.22-1-3.79-1.9-4.17" transform="translate(-3.68 -7.05)"/></g><g class="cls-3"><path class="cls-4" d="M35.49,75.53c-1.8-.77-5.43,1.06-6.2,3.12" transform="translate(-3.68 -7.05)"/></g><g class="cls-3"><path class="cls-4" d="M29.29,78.65c-.37,1-.22,1.93.61,3.62" transform="translate(-3.68 -7.05)"/></g><g class="cls-3"><path class="cls-4" d="M29.9,82.27c.4.81.61,1.58.43,1.58" transform="translate(-3.68 -7.05)"/></g><g class="cls-3"><path class="cls-4" d="M30.33,83.85a54.84,54.84,0,0,0-7.27,1.21" transform="translate(-3.68 -7.05)"/></g><g class="cls-3"><path class="cls-4" d="M23.06,85.06c-1.6.62-1.76.85-1.76,2.52" transform="translate(-3.68 -7.05)"/></g><g class="cls-3"><path class="cls-4" d="M21.3,87.58c0,1.58-.09,1.83-.72,2" transform="translate(-3.68 -7.05)"/></g><g class="cls-3"><path class="cls-4" d="M20.58,89.61c-.79.25-9-1.21-10.12-1.8" transform="translate(-3.68 -7.05)"/></g><g class="cls-3"><path class="cls-4" d="M10.46,87.81c-.84-.44-1-.83-1-2" transform="translate(-3.68 -7.05)"/></g><g class="cls-3"><path class="cls-4" d="M9.43,85.84c0-1.33.36-1.67,1.51-1.46" transform="translate(-3.68 -7.05)"/></g><g class="cls-3"><path class="cls-4" d="M10.94,84.38c3.4.63,6.5-1.08,7.09-3.91" transform="translate(-3.68 -7.05)"/></g><g class="cls-3"><path class="cls-4" d="M18,80.47c.27-1.3-.17-2.18-2.26-4.43" transform="translate(-3.68 -7.05)"/></g><g class="cls-3"><path class="cls-4" d="M15.77,76c-2.43-2.63-2.65-3-2.48-4.63" transform="translate(-3.68 -7.05)"/></g><g class="cls-3"><path class="cls-4" d="M13.29,71.41a4.23,4.23,0,0,1,.34-1.48" transform="translate(-3.68 -7.05)"/></g><g class="cls-3"><path class="cls-4" d="M13.63,69.93c.36-.45,1.14-.31,2.32.41" transform="translate(-3.68 -7.05)"/></g><g class="cls-3"><path class="cls-4" d="M16,70.34c3.16,2,5.84,3,7.89,3" transform="translate(-3.68 -7.05)"/></g><g class="cls-3"><path class="cls-4" d="M23.84,73.31a4.48,4.48,0,0,0,3.24-1" transform="translate(-3.68 -7.05)"/></g><g class="cls-3"><path class="cls-4" d="M27.08,72.34c1.5-1,2.26-3.36,2-6.13" transform="translate(-3.68 -7.05)"/></g><g class="cls-3"><path class="cls-4" d="M29.12,66.21c-.32-3.84-1-4.53-7-7.08" transform="translate(-3.68 -7.05)"/></g><g class="cls-3"><path class="cls-4" d="M22.13,59.13C18.44,57.55,18,57.29,18,56.94" transform="translate(-3.68 -7.05)"/></g><g class="cls-3"><path class="cls-4" d="M18,56.94a4.49,4.49,0,0,1,.95-1.46" transform="translate(-3.68 -7.05)"/></g><g class="cls-3"><path class="cls-4" d="M18.9,55.48c1.69-2,1.69-2,1.41-3.87" transform="translate(-3.68 -7.05)"/></g><g class="cls-3"><path class="cls-4" d="M20.31,51.61c-.21-1.44-.2-1.68.08-2.13" transform="translate(-3.68 -7.05)"/></g><g class="cls-3"><path class="cls-4" d="M20.39,49.48a1.08,1.08,0,0,1,.77-.51" transform="translate(-3.68 -7.05)"/></g><g class="cls-3"><path class="cls-4" d="M21.16,49a15.75,15.75,0,0,1,3,1.35" transform="translate(-3.68 -7.05)"/></g><g class="cls-3"><path class="cls-4" d="M24.2,50.32c3,1.55,4.07,1.78,5.8,1.2" transform="translate(-3.68 -7.05)"/></g><g class="cls-3"><path class="cls-4" d="M30,51.52A6.61,6.61,0,0,0,33.47,49" transform="translate(-3.68 -7.05)"/></g><g class="cls-3"><path class="cls-4" d="M33.47,49a11.88,11.88,0,0,1,2.37-2.24" transform="translate(-3.68 -7.05)"/></g><g class="cls-3"><path class="cls-4" d="M35.84,46.73c1.71-1.22,2.06-1.7,2.19-3" transform="translate(-3.68 -7.05)"/></g><g class="cls-3"><path class="cls-4" d="M38,43.72C38.19,42,37.66,41.18,35,39" transform="translate(-3.68 -7.05)"/></g><g class="cls-3"><path class="cls-4" d="M35,39c-3.35-2.75-3.2-2.5-2.56-4.16" transform="translate(-3.68 -7.05)"/></g><g class="cls-3"><path class="cls-4" d="M32.42,34.82c.64-1.69.64-1.79,0-3.35" transform="translate(-3.68 -7.05)"/></g><g class="cls-3"><path class="cls-4" d="M32.42,31.47c-1.47-3.54-1.21-4.11,1.41-3.18" transform="translate(-3.68 -7.05)"/></g><g class="cls-3"><path class="cls-4" d="M33.83,28.29c1.69.59,2.37.54,3.16-.27" transform="translate(-3.68 -7.05)"/></g><g class="cls-3"><path class="cls-4" d="M38.17,24c.14-1.85.34-2.44.8-2.44" transform="translate(-3.68 -7.05)"/></g><g class="cls-3"><path class="cls-4" d="M39,21.59a16.5,16.5,0,0,1,2.59,2.3" transform="translate(-3.68 -7.05)"/></g><g class="cls-3"><line class="cls-4" x1="37.88" y1="16.84" x2="40.17" y2="19.13"/></g><g class="cls-3"><line class="cls-4" x1="40.17" y1="19.13" x2="39.62" y2="20.84"/></g><g class="cls-3"><path class="cls-4" d="M43.29,27.89c-.77,2.4-.77,3.94,0,5.11" transform="translate(-3.68 -7.05)"/></g><g class="cls-3"><path class="cls-4" d="M43.32,33a2.38,2.38,0,0,0,2.83,1.17" transform="translate(-3.68 -7.05)"/></g><g class="cls-3"><path class="cls-4" d="M46.15,34.17C48,33.38,50.65,27.45,51,23.3" transform="translate(-3.68 -7.05)"/></g><g class="cls-3"><path class="cls-4" d="M51,23.3a8.42,8.42,0,0,0-1.39-5.87" transform="translate(-3.68 -7.05)"/></g><g class="cls-3"><path class="cls-4" d="M49.61,17.43c-1.63-2.81-1.5-3,1.34-1.82" transform="translate(-3.68 -7.05)"/></g><g class="cls-3"><path class="cls-4" d="M51,15.61c2.84,1.18,3.71,1,5.78-1.42" transform="translate(-3.68 -7.05)"/></g><g class="cls-3"><path class="cls-4" d="M56.73,14.19c2.63-3,2.51-2.94,3.52-2.94" transform="translate(-3.68 -7.05)"/></g><g class="cls-3"><line class="cls-4" x1="56.57" y1="4.2" x2="57.49" y2="4.2"/></g><g class="cls-3"><line class="cls-4" x1="57.49" y1="4.2" x2="57.38" y2="6.48"/></g><g class="cls-3"><path class="cls-4" d="M61.06,13.53c-.33,7.18-.22,6.52-1.88,10.5" transform="translate(-3.68 -7.05)"/></g><g class="cls-3"><path class="cls-4" d="M59.18,24C58,26.86,56.1,28.79,56.1,29.9" transform="translate(-3.68 -7.05)"/></g><g class="cls-3"><path class="cls-4" d="M56.1,29.9a3.32,3.32,0,0,0,.32,2" transform="translate(-3.68 -7.05)"/></g><g class="cls-3"><line class="cls-4" x1="52.74" y1="24.8" x2="53.06" y2="26.12"/></g><g class="cls-3"><line class="cls-4" x1="53.06" y1="26.12" x2="52.41" y2="28.08"/></g><g class="cls-3"><path class="cls-4" d="M56.09,35.13a9.45,9.45,0,0,0-.42,5.56" transform="translate(-3.68 -7.05)"/></g><g class="cls-3"><path class="cls-4" d="M55.67,40.69c.48,1.44,2.52,2.88,4.54,3.22" transform="translate(-3.68 -7.05)"/></g><g class="cls-3"><path class="cls-4" d="M60.21,43.91c1.55.26,2.17.56,2.51,1.23" transform="translate(-3.68 -7.05)"/></g><g class="cls-3"><path class="cls-4" d="M62.72,45.14c.41.82.35,1.94-.21,3.63" transform="translate(-3.68 -7.05)"/></g><g class="cls-3"><path class="cls-4" d="M62.51,48.77c-.68,2.06-.66,3.15.11,4.24" transform="translate(-3.68 -7.05)"/></g><g class="cls-3"><path class="cls-4" d="M62.62,53a8.49,8.49,0,0,0,4.6,2.91" transform="translate(-3.68 -7.05)"/></g><g class="cls-3"><path class="cls-5" d="M5.68,86" transform="translate(-3.68 -7.05)"/><path class="cls-5" d="M4.32,103.36" transform="translate(-3.68 -7.05)"/></g><g class="cls-3"><path class="cls-5" d="M11.19,66.08" transform="translate(-3.68 -7.05)"/><path class="cls-5" d="M5.68,86" transform="translate(-3.68 -7.05)"/></g><g class="cls-3"><path class="cls-5" d="M14.36,55.37" transform="translate(-3.68 -7.05)"/><path class="cls-5" d="M11.19,66.08" transform="translate(-3.68 -7.05)"/></g><g class="cls-3"><path class="cls-5" d="M20.75,37.67" transform="translate(-3.68 -7.05)"/><path class="cls-5" d="M14.36,55.37" transform="translate(-3.68 -7.05)"/></g><g class="cls-3"><path class="cls-5" d="M73.86,9.34" transform="translate(-3.68 -7.05)"/><path class="cls-5" d="M68.66,10.93" transform="translate(-3.68 -7.05)"/></g><g class="cls-3"><path class="cls-5" d="M80.17,7.6" transform="translate(-3.68 -7.05)"/><path class="cls-5" d="M73.86,9.34" transform="translate(-3.68 -7.05)"/></g><g class="cls-3"><path class="cls-5" d="M80.17,7.6" transform="translate(-3.68 -7.05)"/></g><g class="cls-3"><path class="cls-5" d="M76.64,169.16" transform="translate(-3.68 -7.05)"/></g><g class="cls-3"><path class="cls-5" d="M71.66,167.87" transform="translate(-3.68 -7.05)"/></g><g class="cls-3"><path class="cls-5" d="M7.36,123.76" transform="translate(-3.68 -7.05)"/><path class="cls-5" d="M20.46,148.57" transform="translate(-3.68 -7.05)"/></g><g class="cls-3"><path class="cls-5" d="M4.5,107.78" transform="translate(-3.68 -7.05)"/><path class="cls-5" d="M7.36,123.76" transform="translate(-3.68 -7.05)"/></g><g class="cls-3"><line class="cls-5" x1="0.64" y1="96.31" x2="0.64" y2="96.31"/></g><g class="cls-3"><path class="cls-6" d="M6.62,81.84c2.65-8.74,5.94-16,11.58-22.08" transform="translate(-3.68 -7.05)"/></g><g class="cls-3"><path class="cls-6" d="M18.2,59.76C20,57.8,25,55.6,25,55.6" transform="translate(-3.68 -7.05)"/></g><g class="cls-3"><path class="cls-4" d="M44.28,113.33c-.55,5.16.28,6.6,2,6.46" transform="translate(-3.68 -7.05)"/></g><g class="cls-3"><path class="cls-4" d="M46.24,119.79c1.67-.15,10.81-7.88,13-12.39" transform="translate(-3.68 -7.05)"/></g><g class="cls-3"><path class="cls-4" d="M59.21,107.4c4.08-8.52,5.24-8.92,6-17.38" transform="translate(-3.68 -7.05)"/></g><g class="cls-3"><path class="cls-4" d="M65.21,90c1-11.29,2.72-17-1-22.8" transform="translate(-3.68 -7.05)"/></g><g class="cls-3"><path class="cls-4" d="M64.24,67.22c-3.73-5.85-9.45-8.8-10.12-8" transform="translate(-3.68 -7.05)"/></g><g class="cls-3"><path class="cls-4" d="M54.12,59.19c-.92,1.06.91,4.73.91,4.73" transform="translate(-3.68 -7.05)"/></g><g class="cls-3"><path class="cls-5" d="M72.07,158.9" transform="translate(-3.68 -7.05)"/></g><g class="cls-3"><path class="cls-5" d="M72.07,158.9" transform="translate(-3.68 -7.05)"/></g><g class="cls-3"><path class="cls-6" d="M66.19,109.52c-7.24-2.7-9.34-8-14.23-9.61" transform="translate(-3.68 -7.05)"/></g><g class="cls-3"><path class="cls-6" d="M52,99.91c-13.77-4.5-20.37-1-24.7-3.73" transform="translate(-3.68 -7.05)"/></g><g class="cls-3"><path class="cls-6" d="M27.26,96.18c-4.32-2.72-3.48-9.53-6.69-10.75" transform="translate(-3.68 -7.05)"/></g><g class="cls-3"><path class="cls-6" d="M20.57,85.43c-4.06-1.54-3.91-.29-7-2.58" transform="translate(-3.68 -7.05)"/></g><g class="cls-3"><path class="cls-6" d="M13.59,82.85c-3.07-2.3-5.72-7-5.72-7" transform="translate(-3.68 -7.05)"/></g><g class="cls-3"><path class="cls-6" d="M66.61,81.84c-4.61,0-6.82-1.38-9.84-2.51" transform="translate(-3.68 -7.05)"/></g><g class="cls-3"><path class="cls-6" d="M56.77,79.33c-4.41-1.65-6.47-1.65-7.74-1.21" transform="translate(-3.68 -7.05)"/></g><g class="cls-3"><path class="cls-6" d="M49,78.12c-2.45.83-5.17,4.2-8.51,3.15" transform="translate(-3.68 -7.05)"/></g><g class="cls-3"><path class="cls-6" d="M40.52,81.27c-2.34-.74-3.59-3.81-8.16-6.17" transform="translate(-3.68 -7.05)"/></g><g class="cls-3"><path class="cls-6" d="M32.36,75.1c-2.65-1.36-5.1-4.87-10-4" transform="translate(-3.68 -7.05)"/></g><g class="cls-3"><path class="cls-6" d="M36.36,77.77c2.52-2.44,5-12.56,5.13-15.43" transform="translate(-3.68 -7.05)"/></g><g class="cls-3"><path class="cls-6" d="M41.49,62.34c.49-9.8-.41-16.78.84-22.08" transform="translate(-3.68 -7.05)"/></g><g class="cls-3"><path class="cls-6" d="M42.33,40.26c1.26-5.31,3.28-6,5.3-8.46" transform="translate(-3.68 -7.05)"/></g><g class="cls-3"><path class="cls-6" d="M47.63,31.8c2.83-3.41,7.82-3.16,7.68-11" transform="translate(-3.68 -7.05)"/></g><g class="cls-3"><path class="cls-6" d="M40.55,14.51a10.36,10.36,0,0,0,2.27,5.88" transform="translate(-3.68 -7.05)"/></g><g class="cls-3"><path class="cls-6" d="M42.82,20.39c2,3.1,0,7.06-4.24,11.05" transform="translate(-3.68 -7.05)"/></g><g class="cls-3"><path class="cls-6" d="M38.58,31.44c-4.73,4.48-8.67,7.73-9.18,10" transform="translate(-3.68 -7.05)"/></g><g class="cls-3"><path class="cls-6" d="M29.4,41.48c-.58,2.65-.12,4.07-3.95,6.69" transform="translate(-3.68 -7.05)"/></g><g class="cls-3"><path class="cls-6" d="M5.72,88.22c3,4.77,4.84,6.8,8,13.89" transform="translate(-3.68 -7.05)"/></g><g class="cls-3"><path class="cls-6" d="M13.71,102.11c3.16,7.1,3,9.33,7.11,12.78" transform="translate(-3.68 -7.05)"/></g><g class="cls-3"><path class="cls-6" d="M20.82,114.89c4.14,3.45,4.46,5.71,4.83,8.21" transform="translate(-3.68 -7.05)"/></g><g class="cls-3"><path class="cls-6" d="M25.65,123.1a26.78,26.78,0,0,0,5.63,12.68" transform="translate(-3.68 -7.05)"/></g><g class="cls-3"><path class="cls-6" d="M31.28,135.78c3.69,4.22,4.95,4.3,8.18,9.53" transform="translate(-3.68 -7.05)"/></g><g class="cls-3"><path class="cls-6" d="M39.46,145.31c1.39,2.24,3.56,5.27,3.56,10.44" transform="translate(-3.68 -7.05)"/></g><g class="cls-3"><path class="cls-6" d="M24.56,119.13c4.46-.43,9.26-3.73,15.68-.29" transform="translate(-3.68 -7.05)"/></g><g class="cls-3"><path class="cls-6" d="M40.24,118.84c6.56,5.06,7.2,7.24,12.42,11.76" transform="translate(-3.68 -7.05)"/></g><g class="cls-3"><path class="cls-6" d="M67.43,140.9c-4.24,1.11-14.2-.1-14.2-.1" transform="translate(-3.68 -7.05)"/></g><g class="cls-3"><path class="cls-6" d="M71.58,140.8" transform="translate(-3.68 -7.05)"/></g><rect x="69.76" width="33.25" height="16.63"/><rect x="103.01" y="16.63" width="16.63" height="16.63"/><rect class="cls-7" x="86.39" y="16.63" width="16.63" height="16.63"/><rect class="cls-8" x="86.39" y="33.25" width="16.63" height="16.63"/><rect class="cls-9" x="103.01" y="33.25" width="16.63" height="16.63"/><rect class="cls-10" x="86.39" y="49.88" width="16.63" height="16.63"/><rect class="cls-11" x="103.01" y="49.88" width="16.63" height="16.63"/><rect class="cls-12" x="86.39" y="66.5" width="16.63" height="16.63"/><rect class="cls-13" x="103.01" y="66.5" width="16.63" height="16.63"/><rect class="cls-8" x="86.39" y="83.13" width="16.63" height="16.63"/><rect class="cls-9" x="103.01" y="83.13" width="16.63" height="16.63"/><rect class="cls-14" x="86.39" y="99.75" width="16.63" height="16.63"/><rect class="cls-8" x="103.01" y="99.75" width="16.63" height="16.63"/><rect class="cls-11" x="86.39" y="116.38" width="16.63" height="16.63"/><rect class="cls-12" x="103.01" y="116.38" width="16.63" height="16.63"/><rect x="119.64" y="33.25" width="16.63" height="99.75"/><rect class="cls-13" x="86.39" y="133" width="16.63" height="16.63"/><rect x="69.76" width="16.63" height="166.25"/><rect x="69.76" y="149.63" width="33.25" height="16.63"/><rect x="103.01" y="133" width="16.63" height="16.63"/><path class="cls-15" d="M40.79,14.32C28.73,21,21.55,33.83,17,46.59c-2.15,6-3.27,12.29-5.29,18.36a154.88,154.88,0,0,0-5.31,18.5c-5.06,25.22,1,49.39,17.56,69.15,7,8.32,20.4,19.24,31.74,20a16.21,16.21,0,0,0,8.87-2.1c2.37-1.37,3-3,3.57-5.92,1-5.37,0-11-.33-16.41-1.34-25.92-1.35-51.73-.82-77.67.29-13.81.49-27.6.47-41.41,0-4,1.87-14.68-1.06-18.15C62.9,6.75,54.51,7.86,50.22,9.68,47,11,43.91,12.78,40.79,14.32Z" transform="translate(-3.68 -7.05)"/></svg>